<svg width="90" height="78" viewBox="0 0 90 78" fill="none" xmlns="http://www.w3.org/2000/svg">
<rect y="0.856934" width="89.0696" height="76.3202" rx="5" fill="#0029FF"/>
<path d="M37.7925 24.9697V37.7666H35.5865L29.8472 28.5996V37.7666H27.6412V24.9697H29.8472L35.604 34.1543V24.9697H37.7925ZM44.4019 37.9424C43.6988 37.9424 43.063 37.8281 42.4947 37.5996C41.9322 37.3652 41.4517 37.04 41.0533 36.624C40.6607 36.208 40.3589 35.7188 40.148 35.1562C39.9371 34.5938 39.8316 33.9873 39.8316 33.3369V32.9854C39.8316 32.2412 39.94 31.5674 40.1568 30.9639C40.3736 30.3604 40.6753 29.8447 41.0621 29.417C41.4488 28.9834 41.9058 28.6523 42.4332 28.4238C42.9605 28.1953 43.5318 28.0811 44.147 28.0811C44.8267 28.0811 45.4214 28.1953 45.9312 28.4238C46.441 28.6523 46.8628 28.9746 47.1968 29.3906C47.5367 29.8008 47.7886 30.29 47.9527 30.8584C48.1226 31.4268 48.2076 32.0537 48.2076 32.7393V33.6445H40.8599V32.124H46.1158V31.957C46.104 31.5762 46.0279 31.2188 45.8873 30.8848C45.7525 30.5508 45.5445 30.2812 45.2632 30.0762C44.982 29.8711 44.607 29.7686 44.1382 29.7686C43.7867 29.7686 43.4732 29.8447 43.1978 29.9971C42.9283 30.1436 42.7027 30.3574 42.521 30.6387C42.3394 30.9199 42.1988 31.2598 42.0992 31.6582C42.0054 32.0508 41.9585 32.4932 41.9585 32.9854V33.3369C41.9585 33.7529 42.0142 34.1396 42.1255 34.4971C42.2427 34.8486 42.4126 35.1562 42.6353 35.4199C42.858 35.6836 43.1275 35.8916 43.4439 36.0439C43.7603 36.1904 44.1207 36.2637 44.5249 36.2637C45.0347 36.2637 45.4888 36.1611 45.8873 35.9561C46.2857 35.751 46.6314 35.4609 46.9244 35.0859L48.0406 36.167C47.8355 36.4658 47.5689 36.7529 47.2408 37.0283C46.9126 37.2979 46.5113 37.5176 46.0367 37.6875C45.5679 37.8574 45.023 37.9424 44.4019 37.9424ZM51.4771 28.2568L53.2876 31.4121L55.1333 28.2568H57.4624L54.5796 32.9238L57.5767 37.7666H55.2476L53.314 34.4795L51.3804 37.7666H49.0425L52.0308 32.9238L49.1568 28.2568H51.4771ZM63.272 28.2568V29.8037H57.9107V28.2568H63.272ZM59.4576 25.9277H61.5757V35.1387C61.5757 35.4316 61.6167 35.6572 61.6988 35.8154C61.7867 35.9678 61.9068 36.0703 62.0591 36.123C62.2115 36.1758 62.3902 36.2021 62.5953 36.2021C62.7417 36.2021 62.8824 36.1934 63.0171 36.1758C63.1519 36.1582 63.2603 36.1406 63.3423 36.123L63.3511 37.7402C63.1753 37.793 62.9703 37.8398 62.7359 37.8809C62.5074 37.9219 62.2437 37.9424 61.9449 37.9424C61.4585 37.9424 61.0279 37.8574 60.6529 37.6875C60.2779 37.5117 59.9849 37.2275 59.774 36.835C59.563 36.4424 59.4576 35.9209 59.4576 35.2705V25.9277Z" fill="white"/>
</svg>
